<svg id="Layer_1" data-name="Layer 1" xmlns="http://www.w3.org/2000/svg" viewBox="0 0 534.7 969.18"><title>arrow</title><path d="M960,1024.5a9.51,9.51,0,0,1-9.5-9.5V66a9.5,9.5,0,0,1,19,0v949A9.51,9.51,0,0,1,960,1024.5Z" transform="translate(-704.73 -56)"/><path d="M960,57a9,9,0,0,1,9,9v949a9,9,0,0,1-18,0V66a9,9,0,0,1,9-9m0-1a10,10,0,0,0-10,10v949a10,10,0,0,0,20,0V66a10,10,0,0,0-10-10Z" transform="translate(-704.73 -56)"/><path d="M960.09,1024.68a9.44,9.44,0,0,1-6.71-2.78L708,776.53a9.5,9.5,0,0,1,13.44-13.43l245.36,245.37a9.5,9.5,0,0,1-6.72,16.21Z" transform="translate(-704.73 -56)"/><path d="M714.73,760.82a8.93,8.93,0,0,1,6.36,2.63l245.37,245.37a9,9,0,0,1-12.73,12.73L708.36,776.18a9,9,0,0,1,0-12.73,8.94,8.94,0,0,1,6.37-2.63m0-1a10,10,0,0,0-7.07,17.07L953,1022.25a10,10,0,0,0,14.15,0h0a10,10,0,0,0,0-14.14L721.8,762.75a9.93,9.93,0,0,0-7.07-2.93Z" transform="translate(-704.73 -56)"/><path d="M1058.53,979a9.5,9.5,0,0,1-6.71-16.22l170.89-170.89a9.5,9.5,0,0,1,13.44,13.43l-170.9,170.9A9.45,9.45,0,0,1,1058.53,979Z" transform="translate(-704.73 -56)"/><path d="M1229.43,789.57a9,9,0,0,1,6.36,15.37L1064.9,975.83a9,9,0,1,1-12.73-12.72l170.9-170.9a8.94,8.94,0,0,1,6.36-2.64m0-1a10,10,0,0,0-7.07,2.93l-170.9,170.9a10,10,0,0,0,0,14.14h0a10,10,0,0,0,14.14,0l170.9-170.9a10,10,0,0,0-7.07-17.07Z" transform="translate(-704.73 -56)"/></svg>