<svg id="Layer_1" data-name="Layer 1" xmlns="http://www.w3.org/2000/svg" viewBox="0 0 534.7 969.18"><defs><style>.cls-1{fill:#fff;}</style></defs><title>arrow-white</title><path class="cls-1" d="M255.27,968.5a9.52,9.52,0,0,1-9.5-9.5V10a9.5,9.5,0,1,1,19,0V959A9.52,9.52,0,0,1,255.27,968.5Z" transform="translate(0)"/><path class="cls-1" d="M255.27,1a9,9,0,0,1,9,9V959a9,9,0,1,1-18,0V10a9,9,0,0,1,9-9m0-1a10,10,0,0,0-10,10V959a10,10,0,1,0,20,0V10A10,10,0,0,0,255.27,0Z" transform="translate(0)"/><path class="cls-1" d="M255.36,968.68a9.44,9.44,0,0,1-6.71-2.78L3.27,720.53A9.5,9.5,0,0,1,16.71,707.1L262.07,952.47a9.49,9.49,0,0,1-6.72,16.21Z" transform="translate(0)"/><path class="cls-1" d="M10,704.82a8.92,8.92,0,0,1,6.36,2.63L261.73,952.82A9,9,0,0,1,249,965.55L3.63,720.18a9,9,0,0,1,0-12.73h0A9,9,0,0,1,10,704.82m0-1a10,10,0,0,0-7.07,17.07L248.27,966.25a10,10,0,0,0,14.14,0h0a10,10,0,0,0,0-14.14L17.07,706.75A9.93,9.93,0,0,0,10,703.82Z" transform="translate(0)"/><path class="cls-1" d="M353.8,923a9.5,9.5,0,0,1-6.71-16.22L518,735.89a9.5,9.5,0,0,1,13.44,13.43l-170.9,170.9A9.42,9.42,0,0,1,353.8,923Z" transform="translate(0)"/><path class="cls-1" d="M524.7,733.57a9,9,0,0,1,6.36,15.37L360.17,919.83a9,9,0,1,1-13-12.45l.27-.27,170.9-170.9a9,9,0,0,1,6.36-2.64m0-1a10,10,0,0,0-7.07,2.93L346.73,906.4a10,10,0,0,0,0,14.14h0a10,10,0,0,0,14.14,0l170.9-170.9a10,10,0,0,0-7.07-17.07Z" transform="translate(0)"/></svg>